<svg width="1304" height="231" viewBox="0 0 1304 231" fill="none" xmlns="http://www.w3.org/2000/svg">
<g clip-path="url(#clip0)">
<rect width="1304" height="231" fill="white"/>
<rect width="2221" height="541" fill="#FF9E71"/>
<path d="M96.1157 139.462C96.1157 135.229 94.6216 131.991 91.6333 129.75C88.645 127.459 83.2661 125.068 75.4966 122.578C67.7271 120.038 61.5762 117.548 57.0439 115.107C44.6924 108.434 38.5166 99.4438 38.5166 88.1382C38.5166 82.2612 40.1602 77.0317 43.4473 72.4497C46.7842 67.8179 51.5405 64.207 57.7163 61.6172C63.9419 59.0273 70.9146 57.7324 78.6343 57.7324C86.4038 57.7324 93.3267 59.1519 99.4028 61.9907C105.479 64.7798 110.186 68.7393 113.522 73.8691C116.909 78.999 118.603 84.8262 118.603 91.3506H96.1904C96.1904 86.3701 94.6216 82.5103 91.4839 79.771C88.3462 76.9819 83.9385 75.5874 78.2607 75.5874C72.7822 75.5874 68.5239 76.7578 65.4858 79.0986C62.4478 81.3896 60.9287 84.4277 60.9287 88.2129C60.9287 91.749 62.6968 94.7124 66.2329 97.103C69.8188 99.4937 75.0732 101.735 81.9961 103.827C94.7461 107.662 104.035 112.418 109.862 118.096C115.689 123.773 118.603 130.846 118.603 139.312C118.603 148.726 115.042 156.122 107.919 161.5C100.797 166.83 91.21 169.494 79.1572 169.494C70.79 169.494 63.1699 167.975 56.2969 164.937C49.4238 161.849 44.1694 157.641 40.5337 152.312C36.9478 146.982 35.1548 140.807 35.1548 133.784H57.6416C57.6416 145.787 64.8135 151.789 79.1572 151.789C84.4863 151.789 88.645 150.718 91.6333 148.576C94.6216 146.385 96.1157 143.347 96.1157 139.462ZM169.627 169.494C157.774 169.494 148.112 165.858 140.641 158.587C133.22 151.315 129.51 141.628 129.51 129.526V127.434C129.51 119.316 131.079 112.069 134.216 105.694C137.354 99.2695 141.787 94.3389 147.514 90.9023C153.292 87.416 159.866 85.6729 167.237 85.6729C178.293 85.6729 186.984 89.1592 193.31 96.1318C199.685 103.104 202.872 112.991 202.872 125.791V134.606H151.399C152.096 139.885 154.188 144.119 157.674 147.306C161.21 150.494 165.668 152.087 171.047 152.087C179.364 152.087 185.864 149.074 190.545 143.048L201.154 154.926C197.917 159.508 193.534 163.094 188.005 165.684C182.477 168.224 176.351 169.494 169.627 169.494ZM167.162 103.154C162.879 103.154 159.393 104.599 156.703 107.487C154.063 110.376 152.37 114.51 151.623 119.889H181.655V118.17C181.556 113.389 180.261 109.704 177.771 107.114C175.28 104.474 171.744 103.154 167.162 103.154ZM244.409 141.628L259.425 87.167H281.987L254.719 168H234.1L206.832 87.167H229.393L244.409 141.628ZM327.708 169.494C315.854 169.494 306.192 165.858 298.721 158.587C291.3 151.315 287.59 141.628 287.59 129.526V127.434C287.59 119.316 289.159 112.069 292.296 105.694C295.434 99.2695 299.867 94.3389 305.594 90.9023C311.372 87.416 317.946 85.6729 325.317 85.6729C336.374 85.6729 345.064 89.1592 351.39 96.1318C357.765 103.104 360.952 112.991 360.952 125.791V134.606H309.479C310.176 139.885 312.268 144.119 315.754 147.306C319.291 150.494 323.748 152.087 329.127 152.087C337.444 152.087 343.944 149.074 348.625 143.048L359.234 154.926C355.997 159.508 351.614 163.094 346.085 165.684C340.557 168.224 334.431 169.494 327.708 169.494ZM325.242 103.154C320.959 103.154 317.473 104.599 314.783 107.487C312.144 110.376 310.45 114.51 309.703 119.889H339.735V118.17C339.636 113.389 338.341 109.704 335.851 107.114C333.36 104.474 329.824 103.154 325.242 103.154ZM393.151 87.167L393.823 96.5054C399.601 89.2837 407.345 85.6729 417.057 85.6729C425.624 85.6729 431.999 88.188 436.182 93.2183C440.366 98.2485 442.507 105.769 442.607 115.78V168H421.017V116.303C421.017 111.721 420.021 108.409 418.028 106.367C416.036 104.275 412.724 103.229 408.092 103.229C402.016 103.229 397.459 105.819 394.421 110.999V168H372.831V87.167H393.151Z" fill="white"/>
<path d="M605.591 77.3804H572.271V168H549.859V77.3804H516.988V59.2266H605.591V77.3804ZM647.501 169.494C635.648 169.494 625.986 165.858 618.515 158.587C611.094 151.315 607.384 141.628 607.384 129.526V127.434C607.384 119.316 608.953 112.069 612.09 105.694C615.228 99.2695 619.661 94.3389 625.388 90.9023C631.166 87.416 637.74 85.6729 645.111 85.6729C656.167 85.6729 664.858 89.1592 671.184 96.1318C677.559 103.104 680.746 112.991 680.746 125.791V134.606H629.273C629.97 139.885 632.062 144.119 635.548 147.306C639.084 150.494 643.542 152.087 648.921 152.087C657.238 152.087 663.738 149.074 668.419 143.048L679.028 154.926C675.791 159.508 671.408 163.094 665.879 165.684C660.351 168.224 654.225 169.494 647.501 169.494ZM645.036 103.154C640.753 103.154 637.267 104.599 634.577 107.487C631.938 110.376 630.244 114.51 629.497 119.889H659.529V118.17C659.43 113.389 658.135 109.704 655.645 107.114C653.154 104.474 649.618 103.154 645.036 103.154ZM726.691 152.087C730.675 152.087 733.913 150.992 736.403 148.8C738.893 146.609 740.188 143.695 740.288 140.06H760.533C760.483 145.538 758.989 150.568 756.051 155.15C753.112 159.683 749.078 163.219 743.948 165.759C738.868 168.249 733.24 169.494 727.064 169.494C715.51 169.494 706.396 165.833 699.722 158.512C693.048 151.141 689.711 140.981 689.711 128.032V126.612C689.711 114.161 693.023 104.225 699.647 96.8042C706.271 89.3833 715.36 85.6729 726.915 85.6729C737.025 85.6729 745.119 88.5615 751.195 94.3389C757.321 100.066 760.434 107.711 760.533 117.274H740.288C740.188 113.09 738.893 109.704 736.403 107.114C733.913 104.474 730.625 103.154 726.542 103.154C721.511 103.154 717.701 104.997 715.111 108.683C712.571 112.318 711.301 118.245 711.301 126.463V128.704C711.301 137.021 712.571 142.998 715.111 146.634C717.651 150.27 721.511 152.087 726.691 152.087ZM792.732 87.167L793.404 96.5054C799.182 89.2837 806.926 85.6729 816.638 85.6729C825.205 85.6729 831.58 88.188 835.763 93.2183C839.947 98.2485 842.088 105.769 842.188 115.78V168H820.598V116.303C820.598 111.721 819.602 108.409 817.609 106.367C815.617 104.275 812.305 103.229 807.673 103.229C801.597 103.229 797.04 105.819 794.002 110.999V168H772.412V87.167H792.732ZM855.262 126.836C855.262 118.818 856.806 111.671 859.894 105.396C862.981 99.1201 867.414 94.2642 873.191 90.8276C879.019 87.3911 885.767 85.6729 893.437 85.6729C904.344 85.6729 913.234 89.0098 920.107 95.6836C927.03 102.357 930.89 111.422 931.687 122.877L931.836 128.405C931.836 140.807 928.375 150.768 921.452 158.288C914.529 165.759 905.241 169.494 893.586 169.494C881.932 169.494 872.619 165.759 865.646 158.288C858.723 150.817 855.262 140.657 855.262 127.808V126.836ZM876.852 128.405C876.852 136.075 878.296 141.952 881.185 146.036C884.074 150.07 888.208 152.087 893.586 152.087C898.816 152.087 902.9 150.095 905.838 146.111C908.777 142.077 910.246 135.652 910.246 126.836C910.246 119.316 908.777 113.489 905.838 109.355C902.9 105.221 898.766 103.154 893.437 103.154C888.158 103.154 884.074 105.221 881.185 109.355C878.296 113.439 876.852 119.789 876.852 128.405ZM967.92 168H946.255V53.25H967.92V168ZM982.413 126.836C982.413 118.818 983.957 111.671 987.045 105.396C990.133 99.1201 994.565 94.2642 1000.34 90.8276C1006.17 87.3911 1012.92 85.6729 1020.59 85.6729C1031.5 85.6729 1040.39 89.0098 1047.26 95.6836C1054.18 102.357 1058.04 111.422 1058.84 122.877L1058.99 128.405C1058.99 140.807 1055.53 150.768 1048.6 158.288C1041.68 165.759 1032.39 169.494 1020.74 169.494C1009.08 169.494 999.77 165.759 992.797 158.288C985.875 150.817 982.413 140.657 982.413 127.808V126.836ZM1004 128.405C1004 136.075 1005.45 141.952 1008.34 146.036C1011.23 150.07 1015.36 152.087 1020.74 152.087C1025.97 152.087 1030.05 150.095 1032.99 146.111C1035.93 142.077 1037.4 135.652 1037.4 126.836C1037.4 119.316 1035.93 113.489 1032.99 109.355C1030.05 105.221 1025.92 103.154 1020.59 103.154C1015.31 103.154 1011.23 105.221 1008.34 109.355C1005.45 113.439 1004 119.789 1004 128.405ZM1069.15 126.986C1069.15 114.584 1072.09 104.599 1077.96 97.0283C1083.89 89.458 1091.86 85.6729 1101.87 85.6729C1110.73 85.6729 1117.63 88.7109 1122.56 94.7871L1123.46 87.167H1143.03V165.311C1143.03 172.383 1141.41 178.534 1138.18 183.763C1134.99 188.993 1130.48 192.977 1124.66 195.716C1118.83 198.456 1112 199.825 1104.19 199.825C1098.26 199.825 1092.48 198.63 1086.85 196.239C1081.23 193.898 1076.97 190.86 1074.08 187.125L1083.64 173.977C1089.02 180.003 1095.54 183.016 1103.21 183.016C1108.94 183.016 1113.4 181.472 1116.59 178.384C1119.77 175.346 1121.37 171.013 1121.37 165.385V161.052C1116.39 166.68 1109.84 169.494 1101.72 169.494C1092.01 169.494 1084.14 165.709 1078.11 158.139C1072.14 150.519 1069.15 140.433 1069.15 127.882V126.986ZM1090.74 128.555C1090.74 135.876 1092.21 141.628 1095.15 145.812C1098.08 149.946 1102.12 152.013 1107.25 152.013C1113.82 152.013 1118.53 149.547 1121.37 144.617V110.625C1118.48 105.694 1113.82 103.229 1107.4 103.229C1102.22 103.229 1098.13 105.346 1095.15 109.579C1092.21 113.812 1090.74 120.138 1090.74 128.555ZM1182.48 168H1160.81V87.167H1182.48V168ZM1159.54 66.249C1159.54 63.0117 1160.61 60.3472 1162.76 58.2554C1164.95 56.1636 1167.91 55.1177 1171.65 55.1177C1175.33 55.1177 1178.27 56.1636 1180.46 58.2554C1182.65 60.3472 1183.75 63.0117 1183.75 66.249C1183.75 69.5361 1182.63 72.2256 1180.39 74.3174C1178.2 76.4092 1175.28 77.4551 1171.65 77.4551C1168.01 77.4551 1165.07 76.4092 1162.83 74.3174C1160.64 72.2256 1159.54 69.5361 1159.54 66.249ZM1247.17 168C1246.18 166.058 1245.46 163.642 1245.01 160.753C1239.78 166.581 1232.98 169.494 1224.61 169.494C1216.69 169.494 1210.12 167.203 1204.89 162.621C1199.71 158.039 1197.12 152.262 1197.12 145.289C1197.12 136.723 1200.28 130.148 1206.61 125.566C1212.98 120.984 1222.17 118.668 1234.18 118.619H1244.11V113.987C1244.11 110.251 1243.14 107.263 1241.2 105.022C1239.31 102.781 1236.29 101.66 1232.16 101.66C1228.52 101.66 1225.66 102.532 1223.57 104.275C1221.53 106.018 1220.5 108.409 1220.5 111.447H1198.91C1198.91 106.765 1200.36 102.432 1203.25 98.4478C1206.14 94.4634 1210.22 91.3506 1215.5 89.1094C1220.78 86.8184 1226.71 85.6729 1233.28 85.6729C1243.24 85.6729 1251.13 88.188 1256.96 93.2183C1262.84 98.1987 1265.78 105.221 1265.78 114.286V149.323C1265.83 156.993 1266.9 162.795 1268.99 166.73V168H1247.17ZM1229.32 152.984C1232.51 152.984 1235.45 152.287 1238.14 150.892C1240.82 149.448 1242.82 147.53 1244.11 145.14V131.244H1236.04C1225.24 131.244 1219.48 134.979 1218.79 142.45L1218.71 143.72C1218.71 146.41 1219.66 148.626 1221.55 150.369C1223.44 152.112 1226.03 152.984 1229.32 152.984Z" fill="white"/>
</g>
<defs>
<clipPath id="clip0">
<rect width="1304" height="231" fill="white"/>
</clipPath>
</defs>
</svg>
