<svg width="1690" height="541" viewBox="0 0 1690 541" fill="none" xmlns="http://www.w3.org/2000/svg">
<rect width="1690" height="541" fill="white"/>
<path d="M791.5 134H543.5L530.5 112H804.5L791.5 134Z" fill="#F1C023" stroke="#F1C023"/>
<path d="M582 339.5L555 293L608.5 208.5H658L582 339.5Z" fill="#F1C023"/>
<path d="M914.5 56H418L568 314.5L627.5 209H588L530.5 112H805L627.5 417.5L667.5 485.5L914.5 56Z" fill="#E4A227" stroke="#E4A227"/>
<path d="M101.686 294.462C101.686 290.029 100.54 286.692 98.249 284.451C96.0078 282.16 91.8989 279.794 85.9224 277.354C75.0151 273.22 67.1709 268.389 62.3896 262.861C57.6084 257.283 55.2178 250.708 55.2178 243.138C55.2178 233.974 58.4551 226.628 64.9297 221.1C71.4541 215.521 79.7217 212.732 89.7324 212.732C96.4062 212.732 102.358 214.152 107.587 216.991C112.817 219.78 116.826 223.739 119.615 228.869C122.454 233.999 123.874 239.826 123.874 246.351H101.984C101.984 241.271 100.889 237.411 98.6973 234.771C96.5557 232.082 93.4429 230.737 89.3589 230.737C85.5239 230.737 82.5356 231.882 80.394 234.173C78.2524 236.415 77.1816 239.453 77.1816 243.288C77.1816 246.276 78.377 248.99 80.7676 251.431C83.1582 253.821 87.3916 256.312 93.4678 258.901C104.076 262.736 111.771 267.443 116.552 273.021C121.383 278.599 123.799 285.696 123.799 294.312C123.799 303.775 120.786 311.171 114.759 316.5C108.733 321.83 100.54 324.494 90.1807 324.494C83.1582 324.494 76.7583 323.05 70.981 320.161C65.2036 317.272 60.6714 313.139 57.3843 307.76C54.147 302.381 52.5283 296.031 52.5283 288.709H74.5669C74.5669 294.985 75.7871 299.542 78.2275 302.381C80.668 305.22 84.6523 306.639 90.1807 306.639C97.8506 306.639 101.686 302.58 101.686 294.462ZM169.968 324.494C159.11 324.494 150.644 321.257 144.567 314.782C138.491 308.308 135.453 299.044 135.453 286.991V280.566C135.453 267.816 138.242 257.98 143.82 251.057C149.398 244.134 157.392 240.673 167.801 240.673C177.961 240.673 185.606 243.935 190.736 250.459C195.866 256.934 198.481 266.546 198.581 279.296V289.681H156.521C156.819 295.657 158.139 300.04 160.48 302.829C162.821 305.568 166.432 306.938 171.312 306.938C178.385 306.938 184.287 304.522 189.018 299.691L197.311 312.466C194.721 316.052 190.96 318.966 186.03 321.207C181.099 323.398 175.745 324.494 169.968 324.494ZM156.67 274.889H177.812V272.946C177.712 268.115 176.916 264.455 175.421 261.964C173.927 259.474 171.337 258.229 167.652 258.229C163.966 258.229 161.277 259.549 159.583 262.188C157.94 264.828 156.969 269.062 156.67 274.889ZM236.009 293.117L246.244 242.167H268.282L246.094 323H225.923L203.661 242.167H225.774L236.009 293.117ZM309.819 324.494C298.962 324.494 290.495 321.257 284.419 314.782C278.343 308.308 275.305 299.044 275.305 286.991V280.566C275.305 267.816 278.094 257.98 283.672 251.057C289.25 244.134 297.244 240.673 307.653 240.673C317.813 240.673 325.458 243.935 330.588 250.459C335.718 256.934 338.333 266.546 338.432 279.296V289.681H296.372C296.671 295.657 297.991 300.04 300.332 302.829C302.672 305.568 306.283 306.938 311.164 306.938C318.236 306.938 324.138 304.522 328.87 299.691L337.162 312.466C334.572 316.052 330.812 318.966 325.881 321.207C320.951 323.398 315.597 324.494 309.819 324.494ZM296.521 274.889H317.664V272.946C317.564 268.115 316.767 264.455 315.273 261.964C313.779 259.474 311.189 258.229 307.503 258.229C303.818 258.229 301.128 259.549 299.435 262.188C297.792 264.828 296.82 269.062 296.521 274.889ZM369.734 242.167L370.332 250.161C375.113 243.835 381.364 240.673 389.083 240.673C402.979 240.673 410.126 250.41 410.524 269.883V323H389.308V271.452C389.308 266.87 388.61 263.558 387.216 261.516C385.871 259.424 383.48 258.378 380.044 258.378C376.209 258.378 373.221 260.346 371.079 264.28V323H349.862V242.167H369.734Z" fill="#747474"/>
<path d="M990.189 232.53H963.295V323H941.256V232.53H914.81V214.227H990.189V232.53ZM1027.69 324.494C1016.83 324.494 1008.37 321.257 1002.29 314.782C996.216 308.308 993.178 299.044 993.178 286.991V280.566C993.178 267.816 995.967 257.98 1001.54 251.057C1007.12 244.134 1015.12 240.673 1025.53 240.673C1035.69 240.673 1043.33 243.935 1048.46 250.459C1053.59 256.934 1056.21 266.546 1056.31 279.296V289.681H1014.25C1014.54 295.657 1015.86 300.04 1018.2 302.829C1020.55 305.568 1024.16 306.938 1029.04 306.938C1036.11 306.938 1042.01 304.522 1046.74 299.691L1055.04 312.466C1052.45 316.052 1048.69 318.966 1043.75 321.207C1038.82 323.398 1033.47 324.494 1027.69 324.494ZM1014.39 274.889H1035.54V272.946C1035.44 268.115 1034.64 264.455 1033.15 261.964C1031.65 259.474 1029.06 258.229 1025.38 258.229C1021.69 258.229 1019 259.549 1017.31 262.188C1015.66 264.828 1014.69 269.062 1014.39 274.889ZM1097.47 306.938C1103.59 306.938 1106.71 302.954 1106.81 294.985H1126.68C1126.58 303.8 1123.87 310.922 1118.54 316.351C1113.21 321.78 1106.33 324.494 1097.92 324.494C1087.51 324.494 1079.56 321.257 1074.09 314.782C1068.61 308.308 1065.82 298.77 1065.72 286.169V279.745C1065.72 267.044 1068.41 257.357 1073.79 250.684C1079.22 244.01 1087.21 240.673 1097.77 240.673C1106.68 240.673 1113.71 243.437 1118.83 248.965C1123.96 254.444 1126.58 262.238 1126.68 272.349H1106.81C1106.76 267.816 1106.01 264.33 1104.57 261.89C1103.12 259.449 1100.73 258.229 1097.39 258.229C1093.71 258.229 1091.07 259.549 1089.48 262.188C1087.88 264.778 1087.03 269.833 1086.94 277.354V285.572C1086.94 292.146 1087.26 296.753 1087.91 299.393C1088.55 301.982 1089.62 303.9 1091.12 305.145C1092.61 306.34 1094.73 306.938 1097.47 306.938ZM1157.98 242.167L1158.58 250.161C1163.36 243.835 1169.61 240.673 1177.33 240.673C1191.23 240.673 1198.37 250.41 1198.77 269.883V323H1177.55V271.452C1177.55 266.87 1176.86 263.558 1175.46 261.516C1174.12 259.424 1171.73 258.378 1168.29 258.378C1164.46 258.378 1161.47 260.346 1159.33 264.28V323H1138.11V242.167H1157.98ZM1211.47 279.969C1211.47 267.717 1214.36 258.104 1220.14 251.132C1225.92 244.159 1233.91 240.673 1244.12 240.673C1254.43 240.673 1262.47 244.159 1268.25 251.132C1274.03 258.104 1276.92 267.767 1276.92 280.118V285.273C1276.92 297.575 1274.05 307.187 1268.32 314.11C1262.6 321.033 1254.58 324.494 1244.27 324.494C1233.91 324.494 1225.84 321.033 1220.06 314.11C1214.34 307.137 1211.47 297.475 1211.47 285.124V279.969ZM1232.69 285.273C1232.69 299.716 1236.55 306.938 1244.27 306.938C1251.39 306.938 1255.23 300.912 1255.77 288.859L1255.85 279.969C1255.85 272.598 1254.83 267.144 1252.78 263.608C1250.74 260.022 1247.85 258.229 1244.12 258.229C1240.53 258.229 1237.72 260.022 1235.68 263.608C1233.68 267.144 1232.69 272.598 1232.69 279.969V285.273ZM1312.33 323H1291.11V208.25H1312.33V323ZM1326.22 279.969C1326.22 267.717 1329.11 258.104 1334.89 251.132C1340.67 244.159 1348.66 240.673 1358.87 240.673C1369.18 240.673 1377.22 244.159 1383 251.132C1388.78 258.104 1391.67 267.767 1391.67 280.118V285.273C1391.67 297.575 1388.8 307.187 1383.07 314.11C1377.35 321.033 1369.33 324.494 1359.02 324.494C1348.66 324.494 1340.59 321.033 1334.81 314.11C1329.09 307.137 1326.22 297.475 1326.22 285.124V279.969ZM1347.44 285.273C1347.44 299.716 1351.3 306.938 1359.02 306.938C1366.14 306.938 1369.98 300.912 1370.52 288.859L1370.6 279.969C1370.6 272.598 1369.58 267.144 1367.53 263.608C1365.49 260.022 1362.6 258.229 1358.87 258.229C1355.28 258.229 1352.47 260.022 1350.43 263.608C1348.43 267.144 1347.44 272.598 1347.44 279.969V285.273ZM1402.35 280.118C1402.35 266.87 1404.74 256.984 1409.52 250.459C1414.3 243.935 1421 240.673 1429.62 240.673C1436.94 240.673 1442.59 243.562 1446.57 249.339L1447.4 242.167H1466.45V323C1466.45 333.31 1463.56 341.179 1457.78 346.607C1452 352.086 1443.71 354.825 1432.9 354.825C1428.47 354.825 1423.81 353.929 1418.93 352.136C1414.05 350.393 1410.42 348.151 1408.03 345.412L1415.12 330.77C1417.12 332.861 1419.71 334.555 1422.89 335.85C1426.08 337.194 1429.09 337.867 1431.93 337.867C1436.66 337.867 1440.05 336.721 1442.09 334.43C1444.18 332.189 1445.25 328.553 1445.3 323.523V316.575C1441.27 321.854 1436.02 324.494 1429.54 324.494C1420.93 324.494 1414.25 321.157 1409.52 314.483C1404.84 307.76 1402.45 298.297 1402.35 286.095V280.118ZM1423.49 285.422C1423.49 292.893 1424.46 298.347 1426.4 301.783C1428.35 305.17 1431.43 306.863 1435.67 306.863C1440 306.863 1443.21 305.294 1445.3 302.157V263.533C1443.11 260.097 1439.95 258.378 1435.82 258.378C1431.63 258.378 1428.52 260.097 1426.48 263.533C1424.49 266.97 1423.49 272.498 1423.49 280.118V285.422ZM1504.02 323H1482.81V242.167H1504.02V323ZM1481.84 221.249C1481.84 217.962 1482.88 215.272 1484.97 213.181C1487.07 211.089 1489.85 210.043 1493.34 210.043C1496.83 210.043 1499.62 211.089 1501.71 213.181C1503.8 215.272 1504.85 217.962 1504.85 221.249C1504.85 224.486 1503.8 227.176 1501.71 229.317C1499.67 231.459 1496.88 232.53 1493.34 232.53C1489.81 232.53 1486.99 231.459 1484.9 229.317C1482.86 227.176 1481.84 224.486 1481.84 221.249ZM1558.78 323C1558.19 321.755 1557.59 319.663 1556.99 316.725C1553.21 321.904 1548.08 324.494 1541.6 324.494C1534.83 324.494 1529.2 322.253 1524.72 317.771C1520.29 313.288 1518.07 307.486 1518.07 300.364C1518.07 291.897 1520.76 285.348 1526.14 280.716C1531.57 276.084 1539.36 273.718 1549.52 273.619H1555.95V267.119C1555.95 263.483 1555.32 260.918 1554.08 259.424C1552.83 257.93 1551.02 257.183 1548.62 257.183C1543.35 257.183 1540.71 260.271 1540.71 266.447H1519.56C1519.56 258.976 1522.35 252.825 1527.93 247.994C1533.56 243.113 1540.66 240.673 1549.22 240.673C1558.09 240.673 1564.94 242.989 1569.77 247.621C1574.65 252.203 1577.09 258.777 1577.09 267.343V305.369C1577.19 312.342 1578.18 317.795 1580.08 321.73V323H1558.78ZM1546.31 307.909C1548.65 307.909 1550.64 307.436 1552.29 306.49C1553.93 305.543 1555.15 304.423 1555.95 303.128V286.319H1550.87C1547.28 286.319 1544.44 287.464 1542.35 289.755C1540.31 292.046 1539.29 295.109 1539.29 298.944C1539.29 304.921 1541.63 307.909 1546.31 307.909Z" fill="#747474"/>
</svg>
