<svg width="1690" height="541" viewBox="0 0 1690 541" fill="none" xmlns="http://www.w3.org/2000/svg">
<rect width="1690" height="541" fill="white"/>
<path d="M421.5 134H173.5L160.5 112H434.5L421.5 134Z" fill="#F1C023" stroke="#F1C023"/>
<path d="M212 339.5L185 293L238.5 208.5H288L212 339.5Z" fill="#F1C023"/>
<path d="M544.5 56H48L198 314.5L257.5 209H218L160.5 112H435L257.5 417.5L297.5 485.5L544.5 56Z" fill="#E4A227" stroke="#E4A227"/>
<path d="M571.686 294.462C571.686 290.029 570.54 286.692 568.249 284.451C566.008 282.16 561.899 279.794 555.922 277.354C545.015 273.22 537.171 268.389 532.39 262.861C527.608 257.283 525.218 250.708 525.218 243.138C525.218 233.974 528.455 226.628 534.93 221.1C541.454 215.521 549.722 212.732 559.732 212.732C566.406 212.732 572.358 214.152 577.587 216.991C582.817 219.78 586.826 223.739 589.615 228.869C592.454 233.999 593.874 239.826 593.874 246.351H571.984C571.984 241.271 570.889 237.411 568.697 234.771C566.556 232.082 563.443 230.737 559.359 230.737C555.524 230.737 552.536 231.882 550.394 234.173C548.252 236.415 547.182 239.453 547.182 243.288C547.182 246.276 548.377 248.99 550.768 251.431C553.158 253.821 557.392 256.312 563.468 258.901C574.076 262.736 581.771 267.443 586.552 273.021C591.383 278.599 593.799 285.696 593.799 294.312C593.799 303.775 590.786 311.171 584.759 316.5C578.733 321.83 570.54 324.494 560.181 324.494C553.158 324.494 546.758 323.05 540.981 320.161C535.204 317.272 530.671 313.139 527.384 307.76C524.147 302.381 522.528 296.031 522.528 288.709H544.567C544.567 294.985 545.787 299.542 548.228 302.381C550.668 305.22 554.652 306.639 560.181 306.639C567.851 306.639 571.686 302.58 571.686 294.462ZM639.968 324.494C629.11 324.494 620.644 321.257 614.567 314.782C608.491 308.308 605.453 299.044 605.453 286.991V280.566C605.453 267.816 608.242 257.98 613.82 251.057C619.398 244.134 627.392 240.673 637.801 240.673C647.961 240.673 655.606 243.935 660.736 250.459C665.866 256.934 668.481 266.546 668.581 279.296V289.681H626.521C626.819 295.657 628.139 300.04 630.48 302.829C632.821 305.568 636.432 306.938 641.312 306.938C648.385 306.938 654.287 304.522 659.018 299.691L667.311 312.466C664.721 316.052 660.96 318.966 656.03 321.207C651.099 323.398 645.745 324.494 639.968 324.494ZM626.67 274.889H647.812V272.946C647.712 268.115 646.916 264.455 645.421 261.964C643.927 259.474 641.337 258.229 637.652 258.229C633.966 258.229 631.277 259.549 629.583 262.188C627.94 264.828 626.969 269.062 626.67 274.889ZM706.009 293.117L716.244 242.167H738.282L716.094 323H695.923L673.661 242.167H695.774L706.009 293.117ZM779.819 324.494C768.962 324.494 760.495 321.257 754.419 314.782C748.343 308.308 745.305 299.044 745.305 286.991V280.566C745.305 267.816 748.094 257.98 753.672 251.057C759.25 244.134 767.244 240.673 777.653 240.673C787.813 240.673 795.458 243.935 800.588 250.459C805.718 256.934 808.333 266.546 808.432 279.296V289.681H766.372C766.671 295.657 767.991 300.04 770.332 302.829C772.672 305.568 776.283 306.938 781.164 306.938C788.236 306.938 794.138 304.522 798.87 299.691L807.162 312.466C804.572 316.052 800.812 318.966 795.881 321.207C790.951 323.398 785.597 324.494 779.819 324.494ZM766.521 274.889H787.664V272.946C787.564 268.115 786.767 264.455 785.273 261.964C783.779 259.474 781.189 258.229 777.503 258.229C773.818 258.229 771.128 259.549 769.435 262.188C767.792 264.828 766.82 269.062 766.521 274.889ZM839.734 242.167L840.332 250.161C845.113 243.835 851.364 240.673 859.083 240.673C872.979 240.673 880.126 250.41 880.524 269.883V323H859.308V271.452C859.308 266.87 858.61 263.558 857.216 261.516C855.871 259.424 853.48 258.378 850.044 258.378C846.209 258.378 843.221 260.346 841.079 264.28V323H819.862V242.167H839.734Z" fill="#747474"/>
<path d="M1020.19 232.53H993.295V323H971.256V232.53H944.81V214.227H1020.19V232.53ZM1057.69 324.494C1046.83 324.494 1038.37 321.257 1032.29 314.782C1026.22 308.308 1023.18 299.044 1023.18 286.991V280.566C1023.18 267.816 1025.97 257.98 1031.54 251.057C1037.12 244.134 1045.12 240.673 1055.53 240.673C1065.69 240.673 1073.33 243.935 1078.46 250.459C1083.59 256.934 1086.21 266.546 1086.31 279.296V289.681H1044.25C1044.54 295.657 1045.86 300.04 1048.2 302.829C1050.55 305.568 1054.16 306.938 1059.04 306.938C1066.11 306.938 1072.01 304.522 1076.74 299.691L1085.04 312.466C1082.45 316.052 1078.69 318.966 1073.75 321.207C1068.82 323.398 1063.47 324.494 1057.69 324.494ZM1044.39 274.889H1065.54V272.946C1065.44 268.115 1064.64 264.455 1063.15 261.964C1061.65 259.474 1059.06 258.229 1055.38 258.229C1051.69 258.229 1049 259.549 1047.31 262.188C1045.66 264.828 1044.69 269.062 1044.39 274.889ZM1127.47 306.938C1133.59 306.938 1136.71 302.954 1136.81 294.985H1156.68C1156.58 303.8 1153.87 310.922 1148.54 316.351C1143.21 321.78 1136.33 324.494 1127.92 324.494C1117.51 324.494 1109.56 321.257 1104.09 314.782C1098.61 308.308 1095.82 298.77 1095.72 286.169V279.745C1095.72 267.044 1098.41 257.357 1103.79 250.684C1109.22 244.01 1117.21 240.673 1127.77 240.673C1136.68 240.673 1143.71 243.437 1148.83 248.965C1153.96 254.444 1156.58 262.238 1156.68 272.349H1136.81C1136.76 267.816 1136.01 264.33 1134.57 261.89C1133.12 259.449 1130.73 258.229 1127.39 258.229C1123.71 258.229 1121.07 259.549 1119.48 262.188C1117.88 264.778 1117.03 269.833 1116.94 277.354V285.572C1116.94 292.146 1117.26 296.753 1117.91 299.393C1118.55 301.982 1119.62 303.9 1121.12 305.145C1122.61 306.34 1124.73 306.938 1127.47 306.938ZM1187.98 242.167L1188.58 250.161C1193.36 243.835 1199.61 240.673 1207.33 240.673C1221.23 240.673 1228.37 250.41 1228.77 269.883V323H1207.55V271.452C1207.55 266.87 1206.86 263.558 1205.46 261.516C1204.12 259.424 1201.73 258.378 1198.29 258.378C1194.46 258.378 1191.47 260.346 1189.33 264.28V323H1168.11V242.167H1187.98ZM1241.47 279.969C1241.47 267.717 1244.36 258.104 1250.14 251.132C1255.92 244.159 1263.91 240.673 1274.12 240.673C1284.43 240.673 1292.47 244.159 1298.25 251.132C1304.03 258.104 1306.92 267.767 1306.92 280.118V285.273C1306.92 297.575 1304.05 307.187 1298.32 314.11C1292.6 321.033 1284.58 324.494 1274.27 324.494C1263.91 324.494 1255.84 321.033 1250.06 314.11C1244.34 307.137 1241.47 297.475 1241.47 285.124V279.969ZM1262.69 285.273C1262.69 299.716 1266.55 306.938 1274.27 306.938C1281.39 306.938 1285.23 300.912 1285.77 288.859L1285.85 279.969C1285.85 272.598 1284.83 267.144 1282.78 263.608C1280.74 260.022 1277.85 258.229 1274.12 258.229C1270.53 258.229 1267.72 260.022 1265.68 263.608C1263.68 267.144 1262.69 272.598 1262.69 279.969V285.273ZM1342.33 323H1321.11V208.25H1342.33V323ZM1356.22 279.969C1356.22 267.717 1359.11 258.104 1364.89 251.132C1370.67 244.159 1378.66 240.673 1388.87 240.673C1399.18 240.673 1407.22 244.159 1413 251.132C1418.78 258.104 1421.67 267.767 1421.67 280.118V285.273C1421.67 297.575 1418.8 307.187 1413.07 314.11C1407.35 321.033 1399.33 324.494 1389.02 324.494C1378.66 324.494 1370.59 321.033 1364.81 314.11C1359.09 307.137 1356.22 297.475 1356.22 285.124V279.969ZM1377.44 285.273C1377.44 299.716 1381.3 306.938 1389.02 306.938C1396.14 306.938 1399.98 300.912 1400.52 288.859L1400.6 279.969C1400.6 272.598 1399.58 267.144 1397.53 263.608C1395.49 260.022 1392.6 258.229 1388.87 258.229C1385.28 258.229 1382.47 260.022 1380.43 263.608C1378.43 267.144 1377.44 272.598 1377.44 279.969V285.273ZM1432.35 280.118C1432.35 266.87 1434.74 256.984 1439.52 250.459C1444.3 243.935 1451 240.673 1459.62 240.673C1466.94 240.673 1472.59 243.562 1476.57 249.339L1477.4 242.167H1496.45V323C1496.45 333.31 1493.56 341.179 1487.78 346.607C1482 352.086 1473.71 354.825 1462.9 354.825C1458.47 354.825 1453.81 353.929 1448.93 352.136C1444.05 350.393 1440.42 348.151 1438.03 345.412L1445.12 330.77C1447.12 332.861 1449.71 334.555 1452.89 335.85C1456.08 337.194 1459.09 337.867 1461.93 337.867C1466.66 337.867 1470.05 336.721 1472.09 334.43C1474.18 332.189 1475.25 328.553 1475.3 323.523V316.575C1471.27 321.854 1466.02 324.494 1459.54 324.494C1450.93 324.494 1444.25 321.157 1439.52 314.483C1434.84 307.76 1432.45 298.297 1432.35 286.095V280.118ZM1453.49 285.422C1453.49 292.893 1454.46 298.347 1456.4 301.783C1458.35 305.17 1461.43 306.863 1465.67 306.863C1470 306.863 1473.21 305.294 1475.3 302.157V263.533C1473.11 260.097 1469.95 258.378 1465.82 258.378C1461.63 258.378 1458.52 260.097 1456.48 263.533C1454.49 266.97 1453.49 272.498 1453.49 280.118V285.422ZM1534.02 323H1512.81V242.167H1534.02V323ZM1511.84 221.249C1511.84 217.962 1512.88 215.272 1514.97 213.181C1517.07 211.089 1519.85 210.043 1523.34 210.043C1526.83 210.043 1529.62 211.089 1531.71 213.181C1533.8 215.272 1534.85 217.962 1534.85 221.249C1534.85 224.486 1533.8 227.176 1531.71 229.317C1529.67 231.459 1526.88 232.53 1523.34 232.53C1519.81 232.53 1516.99 231.459 1514.9 229.317C1512.86 227.176 1511.84 224.486 1511.84 221.249ZM1588.78 323C1588.19 321.755 1587.59 319.663 1586.99 316.725C1583.21 321.904 1578.08 324.494 1571.6 324.494C1564.83 324.494 1559.2 322.253 1554.72 317.771C1550.29 313.288 1548.07 307.486 1548.07 300.364C1548.07 291.897 1550.76 285.348 1556.14 280.716C1561.57 276.084 1569.36 273.718 1579.52 273.619H1585.95V267.119C1585.95 263.483 1585.32 260.918 1584.08 259.424C1582.83 257.93 1581.02 257.183 1578.62 257.183C1573.35 257.183 1570.71 260.271 1570.71 266.447H1549.56C1549.56 258.976 1552.35 252.825 1557.93 247.994C1563.56 243.113 1570.66 240.673 1579.22 240.673C1588.09 240.673 1594.94 242.989 1599.77 247.621C1604.65 252.203 1607.09 258.777 1607.09 267.343V305.369C1607.19 312.342 1608.18 317.795 1610.08 321.73V323H1588.78ZM1576.31 307.909C1578.65 307.909 1580.64 307.436 1582.29 306.49C1583.93 305.543 1585.15 304.423 1585.95 303.128V286.319H1580.87C1577.28 286.319 1574.44 287.464 1572.35 289.755C1570.31 292.046 1569.29 295.109 1569.29 298.944C1569.29 304.921 1571.63 307.909 1576.31 307.909Z" fill="#747474"/>
</svg>
