<svg width="1245" height="179" viewBox="0 0 1245 179" fill="none" xmlns="http://www.w3.org/2000/svg">
<path d="M66.1157 113.462C66.1157 109.229 64.6216 105.991 61.6333 103.75C58.645 101.459 53.2661 99.0684 45.4966 96.5781C37.7271 94.0381 31.5762 91.5479 27.0439 89.1074C14.6924 82.4336 8.5166 73.4438 8.5166 62.1382C8.5166 56.2612 10.1602 51.0317 13.4473 46.4497C16.7842 41.8179 21.5405 38.207 27.7163 35.6172C33.9419 33.0273 40.9146 31.7324 48.6343 31.7324C56.4038 31.7324 63.3267 33.1519 69.4028 35.9907C75.479 38.7798 80.1855 42.7393 83.5225 47.8691C86.9092 52.999 88.6025 58.8262 88.6025 65.3506H66.1904C66.1904 60.3701 64.6216 56.5103 61.4839 53.771C58.3462 50.9819 53.9385 49.5874 48.2607 49.5874C42.7822 49.5874 38.5239 50.7578 35.4858 53.0986C32.4478 55.3896 30.9287 58.4277 30.9287 62.2129C30.9287 65.749 32.6968 68.7124 36.2329 71.103C39.8188 73.4937 45.0732 75.7349 51.9961 77.8267C64.7461 81.6616 74.0347 86.418 79.8618 92.0957C85.689 97.7734 88.6025 104.846 88.6025 113.312C88.6025 122.726 85.0415 130.122 77.9194 135.5C70.7974 140.83 61.21 143.494 49.1572 143.494C40.79 143.494 33.1699 141.975 26.2969 138.937C19.4238 135.849 14.1694 131.641 10.5337 126.312C6.94775 120.982 5.15479 114.807 5.15479 107.784H27.6416C27.6416 119.787 34.8135 125.789 49.1572 125.789C54.4863 125.789 58.645 124.718 61.6333 122.576C64.6216 120.385 66.1157 117.347 66.1157 113.462ZM139.627 143.494C127.774 143.494 118.112 139.858 110.641 132.587C103.22 125.315 99.5098 115.628 99.5098 103.526V101.434C99.5098 93.3159 101.079 86.0693 104.216 79.6943C107.354 73.2695 111.787 68.3389 117.514 64.9023C123.292 61.416 129.866 59.6729 137.237 59.6729C148.293 59.6729 156.984 63.1592 163.31 70.1318C169.685 77.1045 172.872 86.9907 172.872 99.7905V108.606H121.399C122.096 113.885 124.188 118.119 127.674 121.306C131.21 124.494 135.668 126.087 141.047 126.087C149.364 126.087 155.864 123.074 160.545 117.048L171.154 128.926C167.917 133.508 163.534 137.094 158.005 139.684C152.477 142.224 146.351 143.494 139.627 143.494ZM137.162 77.1543C132.879 77.1543 129.393 78.5986 126.703 81.4873C124.063 84.376 122.37 88.5098 121.623 93.8887H151.655V92.1704C151.556 87.3892 150.261 83.7036 147.771 81.1138C145.28 78.4741 141.744 77.1543 137.162 77.1543ZM214.409 115.628L229.425 61.167H251.987L224.719 142H204.1L176.832 61.167H199.393L214.409 115.628ZM297.708 143.494C285.854 143.494 276.192 139.858 268.721 132.587C261.3 125.315 257.59 115.628 257.59 103.526V101.434C257.59 93.3159 259.159 86.0693 262.296 79.6943C265.434 73.2695 269.867 68.3389 275.594 64.9023C281.372 61.416 287.946 59.6729 295.317 59.6729C306.374 59.6729 315.064 63.1592 321.39 70.1318C327.765 77.1045 330.952 86.9907 330.952 99.7905V108.606H279.479C280.176 113.885 282.268 118.119 285.754 121.306C289.291 124.494 293.748 126.087 299.127 126.087C307.444 126.087 313.944 123.074 318.625 117.048L329.234 128.926C325.997 133.508 321.614 137.094 316.085 139.684C310.557 142.224 304.431 143.494 297.708 143.494ZM295.242 77.1543C290.959 77.1543 287.473 78.5986 284.783 81.4873C282.144 84.376 280.45 88.5098 279.703 93.8887H309.735V92.1704C309.636 87.3892 308.341 83.7036 305.851 81.1138C303.36 78.4741 299.824 77.1543 295.242 77.1543ZM363.151 61.167L363.823 70.5054C369.601 63.2837 377.345 59.6729 387.057 59.6729C395.624 59.6729 401.999 62.188 406.182 67.2183C410.366 72.2485 412.507 79.769 412.607 89.7798V142H391.017V90.3027C391.017 85.7207 390.021 82.4087 388.028 80.3667C386.036 78.2749 382.724 77.229 378.092 77.229C372.016 77.229 367.459 79.8188 364.421 84.9985V142H342.831V61.167H363.151Z" fill="white"/>
<path d="M575.591 51.3804H542.271V142H519.859V51.3804H486.988V33.2266H575.591V51.3804ZM617.501 143.494C605.648 143.494 595.986 139.858 588.515 132.587C581.094 125.315 577.384 115.628 577.384 103.526V101.434C577.384 93.3159 578.953 86.0693 582.09 79.6943C585.228 73.2695 589.661 68.3389 595.388 64.9023C601.166 61.416 607.74 59.6729 615.111 59.6729C626.167 59.6729 634.858 63.1592 641.184 70.1318C647.559 77.1045 650.746 86.9907 650.746 99.7905V108.606H599.273C599.97 113.885 602.062 118.119 605.548 121.306C609.084 124.494 613.542 126.087 618.921 126.087C627.238 126.087 633.738 123.074 638.419 117.048L649.028 128.926C645.791 133.508 641.408 137.094 635.879 139.684C630.351 142.224 624.225 143.494 617.501 143.494ZM615.036 77.1543C610.753 77.1543 607.267 78.5986 604.577 81.4873C601.938 84.376 600.244 88.5098 599.497 93.8887H629.529V92.1704C629.43 87.3892 628.135 83.7036 625.645 81.1138C623.154 78.4741 619.618 77.1543 615.036 77.1543ZM696.691 126.087C700.675 126.087 703.913 124.992 706.403 122.8C708.893 120.609 710.188 117.695 710.288 114.06H730.533C730.483 119.538 728.989 124.568 726.051 129.15C723.112 133.683 719.078 137.219 713.948 139.759C708.868 142.249 703.24 143.494 697.064 143.494C685.51 143.494 676.396 139.833 669.722 132.512C663.048 125.141 659.711 114.981 659.711 102.032V100.612C659.711 88.1611 663.023 78.2251 669.647 70.8042C676.271 63.3833 685.36 59.6729 696.915 59.6729C707.025 59.6729 715.119 62.5615 721.195 68.3389C727.321 74.0664 730.434 81.7114 730.533 91.2739H710.288C710.188 87.0903 708.893 83.7036 706.403 81.1138C703.913 78.4741 700.625 77.1543 696.542 77.1543C691.511 77.1543 687.701 78.9971 685.111 82.6826C682.571 86.3184 681.301 92.2451 681.301 100.463V102.704C681.301 111.021 682.571 116.998 685.111 120.634C687.651 124.27 691.511 126.087 696.691 126.087ZM762.732 61.167L763.404 70.5054C769.182 63.2837 776.926 59.6729 786.638 59.6729C795.205 59.6729 801.58 62.188 805.763 67.2183C809.947 72.2485 812.088 79.769 812.188 89.7798V142H790.598V90.3027C790.598 85.7207 789.602 82.4087 787.609 80.3667C785.617 78.2749 782.305 77.229 777.673 77.229C771.597 77.229 767.04 79.8188 764.002 84.9985V142H742.412V61.167H762.732ZM825.262 100.836C825.262 92.8179 826.806 85.6709 829.894 79.3955C832.981 73.1201 837.414 68.2642 843.191 64.8276C849.019 61.3911 855.767 59.6729 863.437 59.6729C874.344 59.6729 883.234 63.0098 890.107 69.6836C897.03 76.3574 900.89 85.4219 901.687 96.877L901.836 102.405C901.836 114.807 898.375 124.768 891.452 132.288C884.529 139.759 875.241 143.494 863.586 143.494C851.932 143.494 842.619 139.759 835.646 132.288C828.723 124.817 825.262 114.657 825.262 101.808V100.836ZM846.852 102.405C846.852 110.075 848.296 115.952 851.185 120.036C854.074 124.07 858.208 126.087 863.586 126.087C868.816 126.087 872.9 124.095 875.838 120.111C878.777 116.077 880.246 109.652 880.246 100.836C880.246 93.3159 878.777 87.4888 875.838 83.355C872.9 79.2212 868.766 77.1543 863.437 77.1543C858.158 77.1543 854.074 79.2212 851.185 83.355C848.296 87.439 846.852 93.7891 846.852 102.405ZM937.92 142H916.255V27.25H937.92V142ZM952.413 100.836C952.413 92.8179 953.957 85.6709 957.045 79.3955C960.133 73.1201 964.565 68.2642 970.343 64.8276C976.17 61.3911 982.918 59.6729 990.588 59.6729C1001.5 59.6729 1010.39 63.0098 1017.26 69.6836C1024.18 76.3574 1028.04 85.4219 1028.84 96.877L1028.99 102.405C1028.99 114.807 1025.53 124.768 1018.6 132.288C1011.68 139.759 1002.39 143.494 990.738 143.494C979.083 143.494 969.77 139.759 962.797 132.288C955.875 124.817 952.413 114.657 952.413 101.808V100.836ZM974.003 102.405C974.003 110.075 975.448 115.952 978.336 120.036C981.225 124.07 985.359 126.087 990.738 126.087C995.967 126.087 1000.05 124.095 1002.99 120.111C1005.93 116.077 1007.4 109.652 1007.4 100.836C1007.4 93.3159 1005.93 87.4888 1002.99 83.355C1000.05 79.2212 995.917 77.1543 990.588 77.1543C985.309 77.1543 981.225 79.2212 978.336 83.355C975.448 87.439 974.003 93.7891 974.003 102.405ZM1039.15 100.986C1039.15 88.5845 1042.09 78.5986 1047.96 71.0283C1053.89 63.458 1061.86 59.6729 1071.87 59.6729C1080.73 59.6729 1087.63 62.7109 1092.56 68.7871L1093.46 61.167H1113.03V139.311C1113.03 146.383 1111.41 152.534 1108.18 157.763C1104.99 162.993 1100.48 166.977 1094.66 169.716C1088.83 172.456 1082 173.825 1074.19 173.825C1068.26 173.825 1062.48 172.63 1056.85 170.239C1051.23 167.898 1046.97 164.86 1044.08 161.125L1053.64 147.977C1059.02 154.003 1065.54 157.016 1073.21 157.016C1078.94 157.016 1083.4 155.472 1086.59 152.384C1089.77 149.346 1091.37 145.013 1091.37 139.385V135.052C1086.39 140.68 1079.84 143.494 1071.72 143.494C1062.01 143.494 1054.14 139.709 1048.11 132.139C1042.14 124.519 1039.15 114.433 1039.15 101.882V100.986ZM1060.74 102.555C1060.74 109.876 1062.21 115.628 1065.15 119.812C1068.08 123.946 1072.12 126.013 1077.25 126.013C1083.82 126.013 1088.53 123.547 1091.37 118.617V84.625C1088.48 79.6943 1083.82 77.229 1077.4 77.229C1072.22 77.229 1068.13 79.3457 1065.15 83.5791C1062.21 87.8125 1060.74 94.1377 1060.74 102.555ZM1152.48 142H1130.81V61.167H1152.48V142ZM1129.54 40.249C1129.54 37.0117 1130.61 34.3472 1132.76 32.2554C1134.95 30.1636 1137.91 29.1177 1141.65 29.1177C1145.33 29.1177 1148.27 30.1636 1150.46 32.2554C1152.65 34.3472 1153.75 37.0117 1153.75 40.249C1153.75 43.5361 1152.63 46.2256 1150.39 48.3174C1148.2 50.4092 1145.28 51.4551 1141.65 51.4551C1138.01 51.4551 1135.07 50.4092 1132.83 48.3174C1130.64 46.2256 1129.54 43.5361 1129.54 40.249ZM1217.17 142C1216.18 140.058 1215.46 137.642 1215.01 134.753C1209.78 140.581 1202.98 143.494 1194.61 143.494C1186.69 143.494 1180.12 141.203 1174.89 136.621C1169.71 132.039 1167.12 126.262 1167.12 119.289C1167.12 110.723 1170.28 104.148 1176.61 99.5664C1182.98 94.9844 1192.17 92.6685 1204.18 92.6187H1214.11V87.9868C1214.11 84.2515 1213.14 81.2632 1211.2 79.022C1209.31 76.7808 1206.29 75.6602 1202.16 75.6602C1198.52 75.6602 1195.66 76.5317 1193.57 78.2749C1191.53 80.0181 1190.5 82.4087 1190.5 85.4468H1168.91C1168.91 80.7651 1170.36 76.4321 1173.25 72.4478C1176.14 68.4634 1180.22 65.3506 1185.5 63.1094C1190.78 60.8184 1196.71 59.6729 1203.28 59.6729C1213.24 59.6729 1221.13 62.188 1226.96 67.2183C1232.84 72.1987 1235.78 79.2212 1235.78 88.2856V123.323C1235.83 130.993 1236.9 136.795 1238.99 140.73V142H1217.17ZM1199.32 126.984C1202.51 126.984 1205.45 126.287 1208.14 124.892C1210.82 123.448 1212.82 121.53 1214.11 119.14V105.244H1206.04C1195.24 105.244 1189.48 108.979 1188.79 116.45L1188.71 117.72C1188.71 120.41 1189.66 122.626 1191.55 124.369C1193.44 126.112 1196.03 126.984 1199.32 126.984Z" fill="white"/>
</svg>
